<svg width="212" height="29" viewBox="0 0 212 29" fill="none" xmlns="http://www.w3.org/2000/svg">
<path fill-rule="evenodd" clip-rule="evenodd" d="M192.758 19.3911C192.796 20.5199 192.443 21.2588 191.699 21.6067C190.956 21.9551 189.898 22.0909 188.523 22.0158V0C188.863 0.24474 189.31 0.390731 189.866 0.437632C190.42 0.484875 190.891 0.50824 191.276 0.50824C191.662 0.50824 192.004 0.710683 192.306 1.11506C192.606 1.51977 192.758 2.18304 192.758 3.10487V19.3911ZM161.975 6.32265C159.812 6.32265 158.269 6.51094 157.347 6.88735V3.10505C157.347 2.18322 157.196 1.51995 156.895 1.11524C156.594 0.710863 156.251 0.50842 155.865 0.50842C155.479 0.50842 155.008 0.485055 154.454 0.437812C153.898 0.390911 153.452 0.24492 153.113 0.000180006V22.016C154.486 22.0911 155.544 21.9553 156.288 21.6069C157.032 21.2589 157.384 20.5201 157.347 19.3912V10.6978C158.269 10.3589 159.191 10.1895 160.113 10.1895C161.599 10.2276 162.484 10.5521 162.766 11.1636C163.048 11.7752 163.18 13.4829 163.161 16.2862V19.3912C163.161 21.5178 164.572 22.3923 167.395 22.016V11.7421C167.414 11.5352 167.414 11.2862 167.395 10.9942C167.376 10.7024 167.277 10.2601 167.099 9.66749C166.919 9.07483 166.661 8.54799 166.323 8.08683C165.984 7.626 165.438 7.21668 164.685 6.85903C163.933 6.50173 163.029 6.32265 161.975 6.32265ZM176.604 13.1813C175.88 13.2567 175.357 13.407 175.038 13.6328C174.755 11.8079 175.319 10.6408 176.731 10.1327C177.748 9.75667 178.792 9.79402 179.864 10.2456C180.635 10.5658 181.022 10.9705 181.022 11.4594C181.04 12.0054 180.806 12.405 180.316 12.6589C179.827 12.913 179.268 13.045 178.636 13.0543C178.005 13.064 177.328 13.1063 176.604 13.1813ZM176.054 17.909C175.471 17.6175 175.179 17.18 175.179 16.5964C175.763 16.3706 176.464 16.211 177.282 16.1167C178.101 16.0227 178.863 15.9896 179.568 16.0179C180.274 16.0461 180.988 16.0227 181.713 15.9473C182.438 15.8723 183.059 15.7496 183.576 15.5805C184.094 15.4111 184.512 15.0772 184.833 14.5783C185.152 14.08 185.312 13.4167 185.312 12.5883C185.312 10.4247 184.761 8.84866 183.661 7.86066C182.561 6.87283 180.843 6.37875 178.51 6.37875C177.286 6.37875 176.218 6.49165 175.306 6.71763C174.393 6.94344 173.566 7.32922 172.822 7.87481C172.079 8.42075 171.514 9.21551 171.129 10.2598C170.743 11.3042 170.55 12.5791 170.55 14.0844C170.55 17.0953 171.255 19.2123 172.667 20.435C174.078 21.6585 176.29 22.2698 179.3 22.2698C181.483 22.2698 182.936 21.9311 183.661 21.2538C184.384 20.5762 184.71 19.419 184.635 17.7819C184.522 17.7819 184.084 17.8384 183.322 17.9513C182.561 18.0642 181.751 18.1629 180.895 18.2477C180.038 18.3323 179.163 18.3701 178.27 18.3604C177.376 18.3512 176.638 18.201 176.054 17.909ZM200.344 18.1493V14.1413C200.326 11.6576 200.326 10.4155 200.344 10.4155H200.373C200.598 10.359 200.767 10.3215 200.882 10.3026C200.994 10.2842 201.305 10.2461 201.813 10.1897C202.321 10.1333 202.744 10.1192 203.083 10.1474C203.421 10.1755 203.844 10.2603 204.352 10.4013C204.86 10.5425 205.27 10.7544 205.58 11.0366C205.891 11.3189 206.163 11.7236 206.399 12.2501C206.634 12.7771 206.752 13.3982 206.752 14.113C206.752 14.9789 206.629 15.722 206.385 16.3428C206.14 16.9639 205.81 17.4156 205.398 17.6978C204.983 17.9801 204.55 18.1965 204.098 18.3469C203.648 18.4977 203.158 18.5541 202.631 18.5163C202.104 18.4788 201.666 18.4315 201.318 18.3751C200.97 18.3186 200.646 18.2437 200.344 18.1493ZM199.004 27.8166C199.56 27.8633 200.007 28.0093 200.344 28.254V21.6776C201.117 21.9413 202.152 22.0728 203.45 22.0728C204.409 22.0728 205.318 21.9457 206.174 21.6918C207.03 21.4376 207.838 21.0331 208.601 20.4778C209.363 19.9232 209.97 19.128 210.422 18.0928C210.872 17.0584 211.099 15.8349 211.099 14.4236C211.099 11.5072 210.468 9.4234 209.208 8.17156C207.947 6.92057 205.867 6.29448 202.969 6.29448C202.048 6.29448 201.219 6.34172 200.486 6.43569C199.753 6.53001 199.169 6.63353 198.736 6.74644C198.303 6.85917 197.907 7.01932 197.551 7.2262C197.193 7.43341 196.949 7.59305 196.817 7.70595C196.684 7.81886 196.539 7.97406 196.379 8.17156C196.219 8.36922 196.13 8.47769 196.111 8.49611V25.1493C196.111 26.071 196.261 26.7343 196.563 27.139C196.863 27.5437 197.206 27.7461 197.593 27.7461C197.979 27.7461 198.45 27.7695 199.004 27.8166Z" fill="#F2F2F2"/>
<path fill-rule="evenodd" clip-rule="evenodd" d="M68.811 6.29412L67.1174 8.2418C67.4936 8.11031 67.8371 7.92219 68.1475 7.67728C68.4583 7.43305 68.7025 7.23061 68.8816 7.07064C69.0602 6.911 69.4036 6.76501 69.9117 6.63317C70.4196 6.50151 71.0875 6.43533 71.9157 6.43533C72.6681 6.43533 73.3928 6.51072 74.089 6.66131C74.785 6.81225 75.4722 7.07541 76.1494 7.45164C76.827 7.82822 77.4149 8.29826 77.9136 8.86295C78.4119 9.4273 78.812 10.1567 79.1132 11.0504C79.4139 11.9443 79.5649 12.9556 79.5649 14.0845C79.5649 17.0016 78.9343 19.0854 77.6738 20.3364C76.4128 21.5882 74.3332 22.2135 71.4359 22.2135C70.5137 22.2135 69.6859 22.1662 68.9522 22.0724C68.2181 21.9784 67.6347 21.8748 67.2022 21.7618C66.769 21.6489 66.374 21.4937 66.0165 21.2962C65.6589 21.0987 65.4141 20.9388 65.2828 20.8161C65.151 20.694 65.005 20.5341 64.8453 20.3364C64.6852 20.1389 64.5957 20.0309 64.5772 20.0118V3.35878C64.5772 2.60665 64.6663 2.03224 64.8453 1.63707C65.0239 1.2419 65.2731 0.992901 65.5932 0.889206C65.913 0.786023 66.2469 0.734006 66.5954 0.734006C66.9433 0.734006 67.3291 0.705694 67.7524 0.649242C68.1758 0.59279 68.5287 0.461296 68.811 0.253906V6.29412ZM68.811 14.3668C68.792 16.8505 68.792 18.0925 68.811 18.0925H68.8393C68.9895 18.1305 69.1541 18.1678 69.333 18.2054C69.5118 18.2434 69.8269 18.2857 70.2786 18.3324C70.7303 18.3797 71.1489 18.3889 71.5347 18.3606C71.9201 18.3324 72.3531 18.2478 72.8331 18.1066C73.313 17.9656 73.7172 17.7539 74.0467 17.4717C74.3757 17.1894 74.6537 16.7848 74.8795 16.2578C75.1053 15.7314 75.2182 15.1104 75.2182 14.3949C75.2182 13.6426 75.1237 12.9887 74.936 12.4332C74.7477 11.8786 74.5029 11.4454 74.2019 11.135C73.9007 10.8246 73.5431 10.5753 73.1295 10.387C72.7154 10.199 72.3153 10.0861 71.9298 10.0483C71.5439 10.0108 71.1347 10.006 70.7022 10.0341C70.2688 10.0624 69.9068 10.1047 69.6153 10.1612C69.3233 10.2176 69.0552 10.2838 68.811 10.3587V14.3668Z" fill="#F2F2F2"/>
<path fill-rule="evenodd" clip-rule="evenodd" d="M86.5821 16.5966C86.5821 17.1802 86.8736 17.6177 87.457 17.9091C88.0402 18.2011 88.7788 18.3514 89.6727 18.3606C90.5663 18.3703 91.4413 18.3324 92.2978 18.2478C93.1538 18.1631 93.963 18.0643 94.7252 17.9514C95.4872 17.8385 95.9247 17.7821 96.0376 17.7821C96.1126 19.4192 95.7879 20.5764 95.0639 21.254C94.3393 21.9312 92.8857 22.2699 90.7031 22.2699C87.6921 22.2699 85.4812 21.6587 84.0701 20.4351C82.6588 19.2125 81.9532 17.0954 81.9532 14.0845C81.9532 12.5793 82.1459 11.3044 82.5317 10.2599C82.9172 9.21566 83.4817 8.4209 84.2253 7.87497C84.9684 7.32937 85.7964 6.94359 86.7092 6.71778C87.6215 6.4918 88.6893 6.3789 89.9126 6.3789C92.2458 6.3789 93.963 6.87298 95.0639 7.86081C96.1647 8.84881 96.715 10.4249 96.715 12.5885C96.715 13.4168 96.5551 14.0801 96.2353 14.5784C95.915 15.0773 95.4965 15.4112 94.9792 15.5806C94.4616 15.7498 93.8404 15.8724 93.1162 15.9475C92.3918 16.0228 91.6768 16.0462 90.9711 16.0181C90.2657 15.9898 89.5033 16.0228 88.6848 16.1168C87.8662 16.2111 87.1651 16.3708 86.5821 16.5966ZM86.4411 13.6329C86.7607 13.4071 87.2829 13.2569 88.0076 13.1815C88.7317 13.1064 89.409 13.0641 90.0399 13.0544C90.67 13.0452 91.2296 12.9132 91.7191 12.6591C92.2084 12.4051 92.4433 12.0055 92.4248 11.4596C92.4248 10.9706 92.039 10.5659 91.2675 10.2458C90.1951 9.79417 89.1506 9.75682 88.1346 10.1329C86.7232 10.641 86.1588 11.808 86.4411 13.6329Z" fill="#F2F2F2"/>
<path d="M108.194 20.6328C108.382 19.937 108.344 19.1749 108.081 18.3466C107.949 18.3466 107.681 18.3747 107.276 18.4312C106.871 18.4876 106.476 18.5299 106.091 18.5582C105.705 18.5864 105.319 18.5772 104.934 18.5299C104.548 18.4832 104.242 18.3232 104.016 18.0502C103.791 17.7776 103.687 17.3869 103.706 16.879L103.678 10.3587C104.054 10.3403 104.468 10.3305 104.92 10.3305C105.428 10.3305 105.889 10.2599 106.303 10.1189C106.716 9.97768 107.046 9.80406 107.29 9.59667C107.535 9.38996 107.747 9.14079 107.926 8.8488C108.104 8.55716 108.231 8.28906 108.307 8.04432C108.382 7.79992 108.438 7.54597 108.476 7.2823C108.513 7.01897 108.532 6.84484 108.532 6.76007V6.54825H103.678V2.45572C103.019 2.41803 102.454 2.42298 101.984 2.46988C101.514 2.51712 101.071 2.62508 100.657 2.79443C100.243 2.96379 99.933 3.24162 99.7261 3.62706C99.5189 4.01285 99.4249 4.49755 99.4438 5.08066V17.2177C99.4438 18.1772 99.6696 19.0336 100.121 19.786C100.573 20.5388 101.161 21.1127 101.885 21.5079C102.609 21.9031 103.438 22.1615 104.369 22.2839C105.301 22.4062 106.255 22.3167 107.234 22.0158C107.686 21.7902 108.005 21.3293 108.194 20.6328Z" fill="#F2F2F2"/>
<path d="M119.729 20.6328C119.541 21.3293 119.221 21.7902 118.77 22.0158C117.791 22.3167 116.836 22.4062 115.905 22.2839C114.973 22.1615 114.145 21.9031 113.421 21.5079C112.696 21.1127 112.108 20.5388 111.657 19.786C111.205 19.0336 110.98 18.1772 110.98 17.2177V5.08066C110.96 4.49755 111.054 4.01285 111.262 3.62706C111.468 3.24162 111.779 2.96379 112.193 2.79443C112.607 2.62508 113.049 2.51712 113.52 2.46988C113.99 2.42298 114.554 2.41803 115.213 2.45572V6.54825H120.068V6.76007C120.068 6.84484 120.049 7.01897 120.012 7.2823C119.974 7.54597 119.917 7.79992 119.842 8.04432C119.767 8.28906 119.64 8.55716 119.461 8.8488C119.282 9.14079 119.07 9.38996 118.826 9.59667C118.581 9.80406 118.252 9.97768 117.838 10.1189C117.424 10.2599 116.963 10.3305 116.455 10.3305C116.003 10.3305 115.589 10.3403 115.213 10.3587L115.242 16.879C115.222 17.3869 115.326 17.7776 115.552 18.0502C115.778 18.3232 116.083 18.4832 116.469 18.5299C116.855 18.5772 117.241 18.5864 117.627 18.5582C118.012 18.5299 118.407 18.4876 118.812 18.4312C119.216 18.3747 119.485 18.3466 119.616 18.3466C119.88 19.1749 119.917 19.937 119.729 20.6328Z" fill="#F2F2F2"/>
<path fill-rule="evenodd" clip-rule="evenodd" d="M127.35 17.9091C126.767 17.6177 126.475 17.1802 126.475 16.5966C127.058 16.3708 127.759 16.2111 128.578 16.1168C129.396 16.0228 130.158 15.9898 130.864 16.0181C131.57 16.0462 132.285 16.0228 133.009 15.9475C133.733 15.8724 134.354 15.7498 134.872 15.5806C135.39 15.4112 135.808 15.0773 136.128 14.5784C136.448 14.0801 136.608 13.4168 136.608 12.5885C136.608 10.4249 136.058 8.84881 134.957 7.86081C133.856 6.87298 132.139 6.3789 129.806 6.3789C128.582 6.3789 127.515 6.4918 126.602 6.71778C125.689 6.94359 124.861 7.32937 124.118 7.87497C123.375 8.4209 122.81 9.21566 122.425 10.2599C122.039 11.3044 121.846 12.5793 121.846 14.0845C121.846 17.0954 122.552 19.2125 123.963 20.4351C125.374 21.6587 127.585 22.2699 130.596 22.2699C132.778 22.2699 134.232 21.9312 134.957 21.254C135.681 20.5764 136.005 19.4192 135.931 17.7821C135.818 17.7821 135.38 17.8385 134.618 17.9514C133.856 18.0643 133.047 18.1631 132.191 18.2478C131.334 18.3324 130.459 18.3703 129.566 18.3606C128.672 18.3514 127.933 18.2011 127.35 17.9091ZM127.901 13.1815C127.176 13.2569 126.654 13.4071 126.334 13.6329C126.052 11.808 126.616 10.641 128.028 10.1329C129.044 9.75682 130.088 9.79417 131.161 10.2458C131.932 10.5659 132.318 10.9706 132.318 11.4596C132.336 12.0055 132.101 12.4051 131.612 12.6591C131.123 12.9132 130.563 13.0452 129.933 13.0544C129.302 13.0641 128.625 13.1064 127.901 13.1815Z" fill="#F2F2F2"/>
<path d="M150.009 6.35075C149.99 6.38861 149.995 6.58628 150.023 6.94358C150.051 7.30123 150.047 7.64472 150.009 7.97371C149.971 8.30304 149.896 8.65591 149.783 9.03231C149.671 9.40889 149.44 9.70957 149.092 9.93538C148.743 10.1612 148.296 10.2741 147.751 10.2741C146.961 10.2741 146.349 10.3022 145.916 10.3587C145.483 10.4151 145.098 10.5562 144.759 10.7823C144.42 11.0081 144.195 11.3283 144.082 11.7418C143.969 12.1559 143.912 12.7203 143.912 13.4354V22.4674C143.574 22.2227 143.127 22.03 142.572 21.8889C142.016 21.7477 141.546 21.6397 141.16 21.5644C140.774 21.4893 140.431 21.2679 140.13 20.9009C139.829 20.5341 139.678 20.0026 139.678 19.3063V11.7418C139.678 11.6289 139.683 11.4737 139.693 11.2762C139.702 11.0786 139.735 10.806 139.791 10.4574C139.848 10.1095 139.942 9.76159 140.074 9.41332C140.205 9.0654 140.403 8.70315 140.667 8.32641C140.93 7.95034 141.25 7.62084 141.626 7.33875C142.002 7.05649 142.487 6.82147 143.08 6.63318C143.672 6.44506 144.336 6.35075 145.07 6.35075H150.009Z" fill="#F2F2F2"/>
<path d="M38.1783 3.58841C46.9212 0.725376 56.8791 7.16945 56.8791 7.16945C56.8791 7.16945 52.6619 18.2563 43.92 21.1191C39.0467 22.716 33.8054 21.4194 30.1128 19.9601C28.686 20.581 27.4215 21.6637 26.5652 23.1406C25.6652 24.6923 25.3645 26.4208 25.5939 28.0354C24.5046 25.8954 24.509 23.1997 25.8489 20.8882C27.2225 18.5198 29.6446 17.1727 32.106 17.1153C32.478 17.0082 32.8087 17.2509 32.9813 17.38C33.4781 17.7552 34.0801 18.0279 34.541 18.187C34.9225 18.3179 35.308 18.4236 35.6922 18.529C35.7514 18.5452 35.8106 18.5614 35.8697 18.5777C36.1243 18.6473 36.3785 18.6967 36.6349 18.7466C36.8382 18.7862 37.043 18.826 37.2503 18.8764C37.6358 18.9695 37.9641 19.1475 38.3118 19.336C38.5307 19.4546 38.7573 19.5775 39.0107 19.686C39.2158 19.7734 39.4282 19.8449 39.6537 19.9208C39.8173 19.9759 39.9878 20.0333 40.1674 20.1008C40.2168 20.1198 40.2898 20.153 40.3763 20.1922C40.6775 20.329 41.142 20.54 41.3384 20.486C41.9763 20.3109 41.6812 19.3331 41.3587 18.9536C41.0662 18.6054 40.573 18.3415 40.1108 18.1258C39.8358 17.9963 39.5387 17.9183 39.249 17.8421C39.0451 17.7885 38.8449 17.7359 38.6585 17.667C38.3782 17.5625 37.5154 17.1328 37.4681 16.5888C37.4227 16.068 38.3197 15.6167 39.0094 15.2698L39.0454 15.2517C40.1475 14.6983 41.3231 14.3207 42.5402 13.9298C42.9923 13.7846 43.4502 13.6376 43.9122 13.479C44.0713 13.4247 44.2699 13.3688 44.4867 13.3078C45.4913 13.025 46.888 12.6319 46.5752 11.7764C46.3681 11.2063 45.6614 11.4592 44.9897 11.6996C44.8736 11.7412 44.7585 11.7823 44.6473 11.8188C44.5874 11.8384 44.5284 11.8577 44.4702 11.8767C43.1848 12.2967 42.2938 12.5878 41.0681 12.8551C41.0206 12.8654 40.9581 12.8816 40.8866 12.9001C40.528 12.9929 39.9437 13.1441 39.8944 12.911C39.8559 12.7354 40.2558 12.5814 40.5124 12.4825C40.5491 12.4684 40.5829 12.4553 40.612 12.4436C41.1553 12.2265 41.6568 12.0367 42.1365 11.8552C43.1532 11.4706 44.0716 11.1231 45.0803 10.6318C45.1548 10.5956 45.234 10.5588 45.3157 10.5208C45.9982 10.2036 46.8481 9.80861 46.4877 9.06069C46.2504 8.56609 45.6707 8.74619 45.1216 8.98905C43.4689 9.72634 41.6548 10.4138 39.9291 11.0635C39.8804 11.0819 39.8304 11.1025 39.7797 11.1234C39.5355 11.224 39.2737 11.3319 39.0481 11.2405C39.0803 11.0264 39.2917 10.9434 39.478 10.8702C39.512 10.8569 39.5451 10.8439 39.5761 10.8305C39.9579 10.6644 40.3188 10.505 40.673 10.3486C41.4952 9.98565 42.2811 9.63869 43.2075 9.26023C43.3042 9.22083 43.4073 9.1821 43.5126 9.14259C44.1919 8.8876 44.9585 8.5998 44.6473 7.88508C44.4047 7.32977 43.627 7.62619 42.9887 7.87587C41.4036 8.489 39.9897 9.09258 38.4384 9.76148C38.416 9.77124 38.3916 9.78218 38.3655 9.79385C38.0987 9.91327 37.6599 10.1097 37.5524 9.91531C37.4141 9.6664 37.8967 9.41405 38.2479 9.23045C38.3385 9.18309 38.4203 9.1403 38.4805 9.10332C39.3271 8.58366 39.9462 8.20367 40.8247 7.72579C40.8381 7.71852 40.8515 7.71124 40.865 7.70392C41.266 7.48627 41.7139 7.24318 41.5605 6.78793C41.333 6.11428 40.3575 6.60933 39.7953 6.89467C39.7674 6.90884 39.7405 6.92249 39.7148 6.93546C39.3645 7.11125 39.0366 7.28551 38.7132 7.45735C37.83 7.92667 36.9809 8.37785 35.8044 8.79258C32.5764 9.92862 29.9134 13.08 29.985 13.1658C27.2081 15.8319 23.2057 18.6963 18.4913 19.173C9.33957 20.1001 0.989258 11.6764 0.989258 11.6764C0.989258 11.6764 7.47904 1.74714 16.6313 0.81952C20.345 0.442603 26.6249 3.04554 30.4426 5.02785C31.182 5.41091 29.5706 8.41618 26.5174 6.81164C26.2089 6.64895 25.9531 6.39641 25.7146 6.16105C25.5268 5.97572 25.3499 5.80104 25.1665 5.68924C24.8234 5.48067 24.47 5.29537 24.1179 5.11072C24.0623 5.08157 24.0068 5.05245 23.9513 5.02325C23.7163 4.90045 23.4777 4.79736 23.2369 4.6933C23.048 4.61164 22.8576 4.52939 22.6666 4.43655C22.3107 4.26304 22.0285 4.01963 21.7294 3.76165C21.5405 3.5987 21.3449 3.42994 21.1197 3.26931C20.9399 3.14116 20.749 3.02663 20.5468 2.9053C20.3976 2.81573 20.2422 2.72246 20.0805 2.61729C20.0351 2.58749 19.9691 2.53817 19.891 2.4799C19.6252 2.2814 19.2202 1.97895 19.0173 1.9895C18.3561 2.02446 18.4364 3.04298 18.6702 3.48249C18.8822 3.88533 19.3067 4.24878 19.7114 4.55969C19.9517 4.74278 20.2241 4.88196 20.4898 5.01772C20.6788 5.11427 20.8644 5.20909 21.0327 5.31676C21.2842 5.47913 22.0359 6.08287 21.9661 6.62471C21.8986 7.14406 20.9215 7.39343 20.1722 7.58466L20.1385 7.59327C18.9471 7.89805 17.7223 8.01512 16.4541 8.13633C15.9772 8.18191 15.4942 8.22807 15.0046 8.28502C14.8371 8.30411 14.6307 8.31628 14.4053 8.32957C13.3638 8.39097 11.9171 8.47627 12.0392 9.37791C12.1208 9.97876 12.8614 9.88392 13.5671 9.79354C13.6907 9.77771 13.8132 9.76201 13.931 9.75022C13.9793 9.74532 14.0272 9.74047 14.0745 9.73567C15.4435 9.59685 16.3829 9.50158 17.6505 9.50224C17.6992 9.50233 17.7639 9.4999 17.838 9.49713C18.2077 9.4833 18.8095 9.46079 18.8085 9.69837C18.8094 9.87776 18.3847 9.9434 18.1133 9.98535C18.0746 9.99133 18.0389 9.99684 18.0081 10.0021C17.4298 10.0983 16.8982 10.1766 16.3898 10.2515C15.3158 10.4097 14.3452 10.5528 13.2552 10.8167C13.1737 10.8365 13.0871 10.8558 12.998 10.8758C12.2644 11.04 11.353 11.244 11.5444 12.0518C11.6707 12.5849 12.2744 12.5331 12.8638 12.4117C14.6357 12.0455 16.555 11.7608 18.3806 11.4963C18.4309 11.4888 18.4829 11.4795 18.5357 11.4701C18.7958 11.4237 19.0765 11.3737 19.2787 11.5113C19.2014 11.714 18.9762 11.7502 18.7782 11.7819C18.7426 11.7876 18.7079 11.7932 18.6752 11.7996C18.259 11.8815 17.8654 11.9614 17.4791 12.0398C16.6058 12.217 15.7692 12.3868 14.7909 12.5565C14.6874 12.5745 14.5777 12.5905 14.4658 12.6068C13.7493 12.711 12.9404 12.8288 13.0908 13.5914C13.2089 14.1866 14.0323 14.0624 14.7102 13.9558C16.3893 13.6949 17.8981 13.4087 19.5581 13.0862C19.5831 13.0813 19.6108 13.0756 19.6403 13.0695C19.9261 13.0105 20.3927 12.9141 20.4559 13.1256C20.5381 13.3977 20.0134 13.5413 19.6308 13.6459C19.5319 13.673 19.4426 13.6974 19.3756 13.7208L19.3304 13.7365C18.415 14.0541 17.7366 14.2895 16.7923 14.5642C16.7778 14.5684 16.7632 14.5726 16.7485 14.5769C16.3086 14.7042 15.8185 14.8461 15.8728 15.3236C15.9505 16.0295 17.0044 15.7568 17.6162 15.5985C17.6479 15.5903 17.6784 15.5825 17.7075 15.575C18.0847 15.4786 18.4403 15.379 18.7909 15.2807C19.7557 15.0104 20.6832 14.7505 21.9241 14.5968C23.0878 14.453 24.0115 14.1194 24.8341 13.8006C27.757 12.6662 29.157 10.7896 30.145 9.46525C30.4223 9.09367 30.6671 8.76554 30.904 8.50947C32.8276 6.43012 35.2465 4.54741 38.1783 3.58841Z" fill="#F2F2F2"/>
</svg>
