<svg version="1.1" id="groupinars-svg-active" xmlns="http://www.w3.org/2000/svg" xmlns:xlink="http://www.w3.org/1999/xlink" x="0px" y="0px" viewBox="0 0 61 42" style="display: none; enable-background:new 0 0 45.4 45.4;" xml:space="preserve">
    <symbol id="svg-groupinars-active" viewBox="0 0 61 42">
        <path fill="currentColor" d="M9.5 18C12.7812 18 15.5 15.375 15.5 12C15.5 8.71875 12.7812 6 9.5 6C6.125 6 3.5 8.71875 3.5 12C3.5 15.375 6.125 18 9.5 18ZM51.5 18C54.7812 18 57.5 15.375 57.5 12C57.5 8.71875 54.7812 6 51.5 6C48.125 6 45.5 8.71875 45.5 12C45.5 15.375 48.125 18 51.5 18ZM54.5 21H48.5C46.8125 21 45.3125 21.75 44.1875 22.7812C48.0312 24.8438 50.6562 28.5938 51.3125 33H57.5C59.0938 33 60.5 31.6875 60.5 30V27C60.5 23.7188 57.7812 21 54.5 21ZM30.5 21C36.2188 21 41 16.3125 41 10.5C41 4.78125 36.2188 0 30.5 0C24.6875 0 20 4.78125 20 10.5C20 16.3125 24.6875 21 30.5 21ZM37.625 24H36.875C34.9062 24.9375 32.75 25.5 30.5 25.5C28.1562 25.5 26 24.9375 24.0312 24H23.2812C17.2812 24 12.5 28.875 12.5 34.875V37.5C12.5 40.0312 14.4688 42 17 42H44C46.4375 42 48.5 40.0312 48.5 37.5V34.875C48.5 28.875 43.625 24 37.625 24ZM16.7188 22.7812C15.5938 21.75 14.0938 21 12.5 21H6.5C3.125 21 0.5 23.7188 0.5 27V30C0.5 31.6875 1.8125 33 3.5 33H9.59375C10.25 28.5938 12.875 24.8438 16.7188 22.7812Z"/>
    </symbol>
</svg>