<svg version="1.1" id="groupinars-svg" xmlns="http://www.w3.org/2000/svg" xmlns:xlink="http://www.w3.org/1999/xlink" x="0px" y="0px" viewBox="0 0 61 42" style="display: none; enable-background:new 0 0 45.4 45.4;" xml:space="preserve">
    <symbol id="svg-groupinars" viewBox="0 0 61 42">
        <path fill="currentColor" d="M30.5,2.5c4.3,0,8,3.7,8,8c0,4.4-3.6,8-8,8s-8-3.6-8-8S26.1,2.5,30.5,2.5 M51.5,8.5c1.9,0,3.5,1.6,3.5,3.5&#10;&#9;&#9;&#9;c0,2-1.5,3.5-3.5,3.5c-2,0-3.5-1.5-3.5-3.5C48,10,49.5,8.5,51.5,8.5 M9.5,8.5c1.9,0,3.5,1.6,3.5,3.5c0,2-1.5,3.5-3.5,3.5&#10;&#9;&#9;&#9;C7.5,15.5,6,14,6,12C6,10,7.5,8.5,9.5,8.5 M54.5,23.5c1.9,0,3.5,1.6,3.5,3.5v3c0,0.3-0.3,0.5-0.5,0.5h-4.2c-0.8-2.7-2.1-5.1-4-7&#10;&#9;&#9;&#9;H54.5 M11.6,23.5c-1.9,1.9-3.3,4.3-4,7H3.5C3.2,30.5,3,30.3,3,30v-3c0-2,1.5-3.5,3.5-3.5H11.6 M37.6,26.5c4.6,0,8.4,3.8,8.4,8.4&#10;&#9;&#9;&#9;v2.6c0,1.1-0.9,2-2,2H17c-1.2,0-2-0.8-2-2v-2.6c0-4.6,3.7-8.4,8.3-8.4h0.2c2.3,1,4.6,1.5,7,1.5c2.3,0,4.7-0.5,6.9-1.5H37.6&#10;&#9;&#9;&#9; M30.5,0C24.7,0,20,4.8,20,10.5C20,16.3,24.7,21,30.5,21C36.2,21,41,16.3,41,10.5C41,4.8,36.2,0,30.5,0L30.5,0z M51.5,6&#10;&#9;&#9;&#9;c-3.4,0-6,2.7-6,6c0,3.4,2.6,6,6,6c3.3,0,6-2.6,6-6C57.5,8.7,54.8,6,51.5,6L51.5,6z M9.5,6c-3.4,0-6,2.7-6,6c0,3.4,2.6,6,6,6&#10;&#9;&#9;&#9;c3.3,0,6-2.6,6-6C15.5,8.7,12.8,6,9.5,6L9.5,6z M54.5,21h-6c-1.7,0-3.2,0.8-4.3,1.8c3.8,2.1,6.5,5.8,7.1,10.2h6.2c1.6,0,3-1.3,3-3&#10;&#9;&#9;&#9;v-3C60.5,23.7,57.8,21,54.5,21L54.5,21z M12.5,21h-6c-3.4,0-6,2.7-6,6v3c0,1.7,1.3,3,3,3h6.1c0.7-4.4,3.3-8.2,7.1-10.2&#10;&#9;&#9;&#9;C15.6,21.8,14.1,21,12.5,21L12.5,21z M37.6,24h-0.8c-2,0.9-4.1,1.5-6.4,1.5c-2.3,0-4.5-0.6-6.5-1.5h-0.8c-6,0-10.8,4.9-10.8,10.9&#10;&#9;&#9;&#9;v2.6c0,2.5,2,4.5,4.5,4.5h27c2.4,0,4.5-2,4.5-4.5v-2.6C48.5,28.9,43.6,24,37.6,24L37.6,24z"/>
    </symbol>
</svg>