<svg version="1.1" xmlns="http://www.w3.org/2000/svg" xmlns:xlink="http://www.w3.org/1999/xlink" x="0px" y="0px" viewBox="0 0 45 45" style="display: none; enable-background:new 0 0 45 45;" xml:space="preserve">
    <symbol id="svg-groups" viewBox="0 0 45 45">
        <path fill="currentColor" d="M19.3,23.4l-3,5c-0.1,0.2-0.3,0.3-0.5,0.3h0h0c-0.1,0-0.2,0-0.3-0.1c-0.3-0.1-0.4-0.4-0.3-0.7l3-5&#10;            c0.2-0.3,0.5-0.4,0.8-0.2c0.1,0.1,0.3,0.2,0.3,0.3C19.4,23.2,19.4,23.3,19.3,23.4z M29.7,28l-3-5c-0.2-0.3-0.5-0.4-0.8-0.2&#10;            c-0.1,0.1-0.2,0.2-0.3,0.3c0,0.1,0,0.3,0,0.4l3,5c0.1,0.2,0.3,0.3,0.5,0.3c0,0,0.1,0,0.1,0c0,0,0.1,0,0.1,0l0,0&#10;            C29.8,28.6,29.9,28.3,29.7,28z M27.3,33.4h-9.5c-0.3,0-0.5,0.3-0.5,0.6c0,0.3,0.2,0.5,0.5,0.6h9.5h0c0.3,0,0.5-0.3,0.5-0.6&#10;            C27.9,33.6,27.6,33.4,27.3,33.4z"/>
        <path d="M22.2,6.4c1.5,0,2.7,1.2,2.7,2.7s-1.2,2.7-2.7,2.7c-1.5,0-2.7-1.2-2.7-2.7S20.7,6.4,22.2,6.4z M24.8,12&#10;            c1.5,2.1,2.4,4.6,2.6,7.2c0.1,0.5-0.2,1-0.7,1.1c0,0-0.1,0-0.1,0H18c-0.5,0-0.8-0.4-0.8-0.9c0,0,0-0.1,0-0.1c0.2-2.6,1-5.1,2.4-7.3&#10;            C19.6,12,22.3,14.6,24.8,12z M34.3,24.8c1.5,0,2.7,1.2,2.7,2.7s-1.2,2.7-2.7,2.7c-1.5,0-2.7-1.2-2.7-2.7S32.8,24.8,34.3,24.8z&#10;             M36.9,30.4c1.5,2.1,2.4,4.6,2.6,7.2c0.1,0.5-0.2,1-0.7,1.1c0,0-0.1,0-0.1,0h-8.7c-0.5,0-0.8-0.4-0.8-0.9c0,0,0-0.1,0-0.1&#10;            c0.2-2.6,1-5.1,2.4-7.3C31.7,30.4,34.4,33,36.9,30.4z M10.3,24.8c1.5,0,2.7,1.2,2.7,2.7s-1.2,2.7-2.7,2.7s-2.7-1.2-2.7-2.7&#10;            S8.8,24.8,10.3,24.8z M12.9,30.4c1.5,2.1,2.4,4.6,2.6,7.2c0.1,0.5-0.2,1-0.7,1.1c0,0-0.1,0-0.1,0H6.1c-0.5,0-0.8-0.4-0.8-0.9&#10;            c0,0,0-0.1,0-0.1c0.2-2.6,1-5.1,2.4-7.3C7.7,30.4,10.4,33,12.9,30.4z"/>
        <path fill="currentColor" d="M34.3,30.5c-1.7,0-3-1.4-3-3s1.4-3,3-3s3,1.4,3,3S35.9,30.5,34.3,30.5z M34.3,26.1c-0.7,0-1.4,0.6-1.4,1.4&#10;            s0.6,1.4,1.4,1.4s1.4-0.6,1.4-1.4S35,26.1,34.3,26.1z M30.4,39.2c-0.8,0-1.5-0.7-1.5-1.5c0-0.1,0-0.2,0-0.3c0.2-2.2,1-4.4,2.3-6.2&#10;            c0.3-0.4,0.8-0.5,1.2-0.2c0.4,0.3,0.5,0.8,0.2,1.2c-1.1,1.6-1.8,3.5-2,5.4h7.5c0,0,0,0,0-0.1c0-1.9-0.7-3.8-1.9-5.3&#10;            C36,31.8,36,31.3,36.4,31c0.4-0.3,0.9-0.2,1.2,0.1c1.4,1.8,2.2,4.1,2.2,6.3c0,1-0.7,1.8-1.5,1.8L30.4,39.2&#10;            C30.5,39.2,30.5,39.2,30.4,39.2z M30.5,37.5C30.5,37.5,30.5,37.5,30.5,37.5L30.5,37.5C30.5,37.5,30.5,37.5,30.5,37.5z M10.3,30.4&#10;            c-1.7,0-3.1-1.4-3.1-3s1.4-3,3.1-3s3.1,1.4,3.1,3S12,30.4,10.3,30.4z M10.3,26C9.6,26,9,26.7,9,27.4s0.6,1.3,1.4,1.3&#10;            s1.4-0.6,1.4-1.3S11.1,26,10.3,26z M15.9,37.4c0-2.3-0.8-4.6-2.3-6.4c-0.3-0.4-0.8-0.4-1.2-0.1c-0.4,0.3-0.4,0.8-0.1,1.2&#10;            c1.2,1.5,1.9,3.4,1.9,5.3c0,0,0,0,0,0.1H6.7c0.2-1.9,0.9-3.8,2-5.4c0.3-0.4,0.2-0.9-0.2-1.2c-0.4-0.3-0.9-0.2-1.2,0.2&#10;            C6,32.9,5.2,35.1,5,37.3c0,0,0,0.2,0,0.2c0,0.9,0.7,1.6,1.6,1.6h7.8C15.3,39.1,15.9,38.4,15.9,37.4z M22.2,12.1&#10;            c-1.7,0-3.1-1.4-3.1-3.1S20.6,6,22.2,6c1.7,0,3,1.4,3,3.1S23.9,12.1,22.2,12.1z M22.2,7.7c-0.7,0-1.4,0.6-1.4,1.4s0.6,1.4,1.4,1.4&#10;            c0.7,0,1.4-0.6,1.4-1.4S23,7.7,22.2,7.7z M27.8,19c0-2.3-0.8-4.6-2.3-6.4c-0.3-0.4-0.8-0.4-1.2-0.1c-0.4,0.3-0.4,0.8-0.1,1.2&#10;            c1.2,1.5,1.9,3.4,1.9,5.3c0,0,0,0,0,0h-7.5c0.2-1.9,0.9-3.8,2-5.4c0.3-0.4,0.2-0.9-0.2-1.2c-0.4-0.3-0.9-0.2-1.2,0.2&#10;            c-1.3,1.9-2.1,4.1-2.3,6.3c0,0,0,0.1,0,0.2c0,0.4,0.2,0.8,0.5,1.1c0.3,0.3,0.7,0.5,1.1,0.5h7.8C27.2,20.8,27.8,20,27.8,19z"/>
    </symbol>
</svg>